:FULLY-SPECIFIED
:FORCE-ALL-JOINTS-BE-3DOF
:DEGREES
68
root 5.91113 16.766 -28.1115 10.9514 2.80249 -3.8313
lfemur -35.4954 15.7124 -18.0099
ltibia 53.3296 0 0
lfoot -21.1891 -11.7935 0
ltoes 32.2263 0 0
rfemur -17.0961 -0.327251 21.9032
rtibia 30.3249 0 0
rfoot -26.5888 -18.0947 0
rtoes -9.7443 0 0
lowerback -3.4708 2.49027 3.36471
upperback -1.35548 3.21248 -0.190894
thorax 0.746251 1.60186 -1.94317
lowerneck -10.026 -2.39964 2.15239
upperneck -5.60895 -3.34771 2.05815
head -0.0919905 -1.68957 0.185022
lclavicle -2.79344e-14 3.41424e-15 0
lhumerus -40.3505 -11.9421 93.9278
lradius 43.9557 0 0
lwrist 7.77153 0 0
lhand -12.8416 1.8776 0
lfingers 7.12502 0 0
lthumb 13.2459 31.4368 0
rclavicle -2.79344e-14 3.41424e-15 0
rhumerus -39.2011 2.21325 -91.974
rradius 42.249 0 0
rwrist 8.18391 0 0
rhand -25.1106 -21.7663 0
rfingers 7.12502 0 0
rthumb 1.40475 -51.7415 0
69
root 5.91612 16.7651 -28.1031 11.0276 2.84003 -3.89045
lfemur -35.8251 15.8297 -17.9207
ltibia 53.435 0 0
lfoot -21.0228 -11.4599 0
ltoes 31.8319 0 0
rfemur -17.1116 -0.271326 21.957
rtibia 30.2699 0 0
rfoot -26.5418 -18.1999 0
rtoes -9.91431 0 0
lowerback -3.49992 2.52183 3.37025
upperback -1.38064 3.25327 -0.176587
thorax 0.737859 1.62199 -1.92817
lowerneck -10.0434 -2.42201 2.17581
upperneck -5.63076 -3.37979 2.04443
head -0.0968273 -1.70627 0.176156
lclavicle -2.67166e-14 3.44505e-15 0
lhumerus -40.3766 -11.8168 93.8547
lradius 43.9762 0 0
lwrist 7.79926 0 0
lhand -12.9632 1.83981 0
lfingers 7.12502 0 0
lthumb 13.1287 31.4069 0
rclavicle -2.67166e-14 3.44505e-15 0
rhumerus -39.1244 2.32915 -91.9541
rradius 42.2651 0 0
rwrist 8.20131 0 0
rhand -25.1188 -21.7849 0
rfingers 7.12502 0 0
rthumb 1.39679 -51.7604 0
70
root 5.92382 16.7643 -28.0894 11.1712 2.88956 -3.97541
lfemur -36.3334 15.9883 -17.7933
ltibia 53.5143 0 0
lfoot -20.8119 -10.8163 0
ltoes 31.1714 0 0
rfemur -17.1559 -0.146041 22.0341
rtibia 30.1761 0 0
rfoot -26.4649 -18.392 0
rtoes -10.1506 0 0
lowerback -3.57388 2.57097 3.3632
upperback -1.42804 3.31664 -0.157851
thorax 0.731708 1.65328 -1.89852
lowerneck -10.0725 -2.45506 2.22113
upperneck -5.65966 -3.42852 2.02088
head -0.102637 -1.73175 0.160232
lclavicle -2.42082e-14 3.38337e-15 0
lhumerus -40.4252 -11.6211 93.7373
lradius 44 0 0
lwrist 7.8451 0 0
lhand -13.1742 1.78121 0
lfingers 7.12502 0 0
lthumb 12.9253 31.3621 0
rclavicle -2.42082e-14 3.38337e-15 0
rhumerus -38.9933 2.49532 -91.9261
rradius 42.2732 0 0
rwrist 8.23934 0 0
rhand -25.1468 -21.8223 0
rfingers 7.12502 0 0
rthumb 1.36977 -51.7986 0
71
root 5.93396 16.7639 -28.0705 11.3854 2.94402 -4.07756
lfemur -36.9816 16.1576 -17.6381
ltibia 53.51 0 0
lfoot -20.5969 -9.83165 0
ltoes 30.2582 0 0
rfemur -17.2343 0.0568252 22.1253
rtibia 30.0447 0 0
rfoot -26.3627 -18.6703 0
rtoes -10.419 0 0
lowerback -3.70309 2.63482 3.33526
upperback -1.49926 3.39889 -0.137332
thorax 0.731538 1.69391 -1.85213
lowerneck -10.1124 -2.49632 2.29057
upperneck -5.69023 -3.49099 1.98758
head -0.107905 -1.76451 0.136954
lclavicle -2.02338e-14 3.17065e-15 0
lhumerus -40.4988 -11.3662 93.5809
lradius 44.0219 0 0
lwrist 7.90874 0 0
lhand -13.4682 1.70674 0
lfingers 7.12502 0 0
lthumb 12.642 31.307 0
rclavicle -2.02338e-14 3.17065e-15 0
rhumerus -38.8103 2.69163 -91.8908
rradius 42.2656 0 0
rwrist 8.30015 0 0
rhand -25.1981 -21.8786 0
rfingers 7.12502 0 0
rthumb 1.3203 -51.856 0
72
root 5.94649 16.764 -28.0466 11.6638 2.99951 -4.19047
lfemur -37.7267 16.3066 -17.4591
ltibia 53.3836 0 0
lfoot -20.4058 -8.51081 0
ltoes 29.1207 0 0
rfemur -17.3437 0.329639 22.2228
rtibia 29.8799 0 0
rfoot -26.2434 -19.0207 0
rtoes -10.6891 0 0
lowerback -3.88886 2.7105 3.28256
upperback -1.59335 3.49633 -0.116325
thorax 0.738748 1.74204 -1.78837
lowerneck -10.1614 -2.54417 2.38382
upperneck -5.71763 -3.56509 1.94512
head -0.111401 -1.80344 0.106592
lclavicle -1.48081e-14 2.77821e-15 0
lhumerus -40.5995 -11.0638 93.3919
lradius 44.0394 0 0
lwrist 7.98984 0 0
lhand -13.8271 1.62251 0
lfingers 7.12502 0 0
lthumb 12.2961 31.2464 0
rclavicle -1.48081e-14 2.77821e-15 0
rhumerus -38.5826 2.89962 -91.8456
rradius 42.2409 0 0
rwrist 8.38133 0 0
rhand -25.2689 -21.949 0
rfingers 7.12502 0 0
rthumb 1.25194 -51.9282 0
73
root 5.96156 16.7645 -28.0179 11.9905 3.05531 -4.30994
lfemur -38.5215 16.404 -17.2542
ltibia 53.1153 0 0
lfoot -20.2549 -6.89447 0
ltoes 27.8015 0 0
rfemur -17.4723 0.648908 22.32
rtibia 29.6886 0 0
rfoot -26.1179 -19.4162 0
rtoes -10.9346 0 0
lowerback -4.12335 2.79508 3.20566
upperback -1.70685 3.60532 -0.0947751
thorax 0.752387 1.79588 -1.70811
lowerneck -10.2165 -2.59785 2.498
upperneck -5.73762 -3.64952 1.89466
head -0.112182 -1.84779 0.0699822
lclavicle -8.13613e-15 2.20724e-15 0
lhumerus -40.7278 -10.7261 93.1783
lradius 44.0525 0 0
lwrist 8.08806 0 0
lhand -14.221 1.53579 0
lfingers 7.12502 0 0
lthumb 11.9165 31.1854 0
rclavicle -8.13613e-15 2.20724e-15 0
rhumerus -38.3219 3.10257 -91.7848
rradius 42.2048 0 0
rwrist 8.47585 0 0
rhand -25.3483 -22.0246 0
rfingers 7.12502 0 0
rthumb 1.1752 -52.0056 0
74
root 5.97952 16.7651 -27.9845 12.3402 3.11385 -4.43396
lfemur -39.3146 16.418 -17.0148
ltibia 52.7043 0 0
lfoot -20.1479 -5.05919 0
ltoes 26.3577 0 0
rfemur -17.5996 0.975282 22.4115
rtibia 29.4805 0 0
rfoot -26.0006 -19.817 0
rtoes -11.1328 0 0
lowerback -4.3896 2.88559 3.10954
upperback -1.83372 3.72226 -0.0712789
thorax 0.769157 1.85363 -1.61372
lowerneck -10.2743 -2.65748 2.6277
upperneck -5.74655 -3.74383 1.83789
head -0.109593 -1.8972 0.0285274
lclavicle -6.12949e-16 1.48882e-15 0
lhumerus -40.8835 -10.3657 92.9495
lradius 44.0641 0 0
lwrist 8.20308 0 0
lhand -14.6083 1.45505 0
lfingers 7.12502 0 0
lthumb 11.5433 31.1294 0
rclavicle -6.12949e-16 1.48882e-15 0
rhumerus -38.0446 3.28544 -91.6998
rradius 42.1691 0 0
rwrist 8.57213 0 0
rhand -25.4184 -22.0917 0
rfingers 7.12502 0 0
rthumb 1.10751 -52.0743 0
75
root 6.00096 16.7655 -27.9466 12.6783 3.18075 -4.56276
lfemur -40.0503 16.3167 -16.7265
ltibia 52.1687 0 0
lfoot -20.0766 -3.11733 0
ltoes 24.8611 0 0
rfemur -17.6966 1.25355 22.4931
rtibia 29.2683 0 0
rfoot -25.909 -20.1699 0
rtoes -11.265 0 0
lowerback -4.6615 2.97903 3.0036
upperback -1.96543 3.84358 -0.0430815
thorax 0.783418 1.91351 -1.50904
lowerneck -10.3301 -2.72401 2.76494
upperneck -5.74137 -3.84838 1.77703
head -0.103265 -1.95166 -0.0158043
lclavicle 7.17607e-15 6.83872e-16 0
lhumerus -41.0651 -9.99604 92.7162
lradius 44.0796 0 0
lwrist 8.33452 0 0
lhand -14.9357 1.38992 0
lfingers 7.12502 0 0
lthumb 11.2277 31.0844 0
rclavicle 7.17607e-15 6.83872e-16 0
rhumerus -37.7714 3.43489 -91.5784
rradius 42.1526 0 0
rwrist 8.65395 0 0
rhand -25.4539 -22.1318 0
rfingers 7.12502 0 0
rthumb 1.07323 -52.1153 0
